<svg xmlns="http://www.w3.org/2000/svg" xmlns:xlink="http://www.w3.org/1999/xlink" version="1.1" style="shape-rendering:geometricPrecision; text-rendering:geometricPrecision; image-rendering:optimizeQuality; fill-rule:evenodd; clip-rule:evenodd" viewBox="247.48 299.11 503.61 401.08">
<g><path style="opacity:0.902" fill="#fefffe" d="M 484.5,299.5 C 537.813,295.897 577.313,317.231 603,363.5C 616.038,390.859 617.705,418.859 608,447.5C 587.921,489.189 554.754,507.356 508.5,502C 466.998,491.832 442.831,465.665 436,423.5C 435.333,414.833 435.333,406.167 436,397.5C 439.207,389.48 445.041,386.647 453.5,389C 456.171,390.25 458.337,392.083 460,394.5C 460.972,406.499 462.306,418.499 464,430.5C 473.758,459.411 493.925,475.078 524.5,477.5C 563.27,473.897 584.603,452.73 588.5,414C 585.232,367.777 561.232,338.777 516.5,327C 470.091,321.283 436.925,339.45 417,381.5C 404.165,420.992 412.998,454.826 443.5,483C 433.167,493.333 422.833,503.667 412.5,514C 406.206,516.395 402.539,514.228 401.5,507.5C 403.039,499.141 404.705,490.807 406.5,482.5C 378.17,438.71 377.336,394.377 404,349.5C 423.933,321.781 450.766,305.114 484.5,299.5 Z"/></g>
<g><path style="opacity:0.903" fill="#fefffe" d="M 494.5,388.5 C 502.96,386.645 508.793,389.645 512,397.5C 512.667,408.5 512.667,419.5 512,430.5C 508.793,438.52 502.959,441.353 494.5,439C 490.915,437.084 488.415,434.251 487,430.5C 486.333,419.5 486.333,408.5 487,397.5C 488.614,393.723 491.114,390.723 494.5,388.5 Z"/></g>
<g><path style="opacity:0.9" fill="#fefffe" d="M 545.5,388.5 C 553.924,386.628 559.757,389.628 563,397.5C 563.667,408.5 563.667,419.5 563,430.5C 558.022,440.056 550.856,442.056 541.5,436.5C 540.139,434.972 538.972,433.305 538,431.5C 537.333,419.833 537.333,408.167 538,396.5C 539.69,392.979 542.19,390.312 545.5,388.5 Z"/></g>
<g><path style="opacity:0.852" fill="#fefffe" d="M 278.5,562.5 C 284.814,562.079 290.814,563.246 296.5,566C 299.429,570.679 298.763,574.679 294.5,578C 289.958,578.162 285.458,577.662 281,576.5C 270.902,578.266 265.235,584.266 264,594.5C 263.5,601.158 263.334,607.825 263.5,614.5C 271.174,614.334 278.841,614.5 286.5,615C 289.366,616.393 290.699,618.726 290.5,622C 290.769,625.817 289.102,628.15 285.5,629C 278.174,629.5 270.841,629.666 263.5,629.5C 263.667,651.836 263.5,674.169 263,696.5C 258.333,700.5 253.667,700.5 249,696.5C 247.862,679.717 247.362,662.884 247.5,646C 247.391,627.804 247.891,609.638 249,591.5C 252.185,574.813 262.018,565.146 278.5,562.5 Z"/></g>
<g><path style="opacity:0.893" fill="#fefffe" d="M 683.5,563.5 C 687.605,563.234 691.605,563.734 695.5,565C 697.667,565.833 699.167,567.333 700,569.5C 700.333,593.833 700.667,618.167 701,642.5C 709.531,634.303 717.698,625.803 725.5,617C 736.666,608.243 744.666,610.576 749.5,624C 748.863,626.245 748.03,628.412 747,630.5C 739.016,637.317 731.516,644.65 724.5,652.5C 732.108,662.278 740.274,671.611 749,680.5C 752.86,687.604 751.36,693.437 744.5,698C 740.471,699.913 736.471,699.913 732.5,698C 722.91,687.747 714.076,676.914 706,665.5C 704.333,667.167 702.667,668.833 701,670.5C 700.687,677.868 700.02,685.201 699,692.5C 695.439,699.078 689.939,701.245 682.5,699C 678.667,697.833 676.167,695.333 675,691.5C 674.333,651.5 674.333,611.5 675,571.5C 676.419,567.245 679.253,564.578 683.5,563.5 Z"/></g>
<g><path style="opacity:0.893" fill="#fefffe" d="M 636.5,564.5 C 649.036,564.036 654.703,570.036 653.5,582.5C 652.217,617.397 652.217,652.231 653.5,687C 653.135,695.861 648.468,700.028 639.5,699.5C 630.454,698.811 625.954,693.811 626,684.5C 625.079,646.814 625.413,609.147 627,571.5C 629.44,568.044 632.607,565.711 636.5,564.5 Z"/></g>
<g><path style="opacity:0.899" fill="#fefffe" d="M 467.5,587.5 C 477.494,586.827 482.161,591.494 481.5,601.5C 481.165,605.507 480.832,609.507 480.5,613.5C 486.509,613.334 492.509,613.501 498.5,614C 502.715,615.951 504.715,619.284 504.5,624C 504.554,628.875 502.554,632.542 498.5,635C 492.509,635.499 486.509,635.666 480.5,635.5C 480.109,647.553 480.609,659.553 482,671.5C 482.833,673.667 484.333,675.167 486.5,676C 489.497,676.305 492.497,676.138 495.5,675.5C 504.038,676.845 507.205,681.845 505,690.5C 503.181,695.336 499.681,698.169 494.5,699C 471.791,703.257 458.958,694.09 456,671.5C 455.389,659.487 455.556,647.487 456.5,635.5C 442.166,638.003 436.666,632.336 440,618.5C 441.227,616.274 443.061,614.774 445.5,614C 449.152,613.501 452.818,613.335 456.5,613.5C 456.183,607.091 456.683,600.757 458,594.5C 460.086,590.555 463.253,588.221 467.5,587.5 Z"/></g>
<g><path style="opacity:0.865" fill="#fefffe" d="M 387.5,612.5 C 410.87,610.59 423.703,621.257 426,644.5C 426.942,661.553 426.609,678.553 425,695.5C 420.653,700.253 415.986,700.586 411,696.5C 409.911,692.952 409.411,689.285 409.5,685.5C 411.306,669.733 410.806,654.066 408,638.5C 404.785,630.644 398.952,626.977 390.5,627.5C 374.499,628.002 366.332,636.336 366,652.5C 365.667,666.833 365.333,681.167 365,695.5C 364.5,697.333 363.333,698.5 361.5,699C 358.833,699.667 356.167,699.667 353.5,699C 351.667,698.5 350.5,697.333 350,695.5C 349.027,668.771 349.36,642.104 351,615.5C 354.648,613.316 358.481,612.982 362.5,614.5C 364.72,618.493 365.886,622.826 366,627.5C 371.013,619.41 378.18,614.41 387.5,612.5 Z"/></g>
<g><path style="opacity:0.902" fill="#fefffe" d="M 547.5,612.5 C 560.362,609.783 571.195,613.116 580,622.5C 582.021,614.399 587.188,611.232 595.5,613C 599.112,613.889 601.612,616.055 603,619.5C 603.203,642.015 603.703,664.515 604.5,687C 603.378,697.083 597.711,701.083 587.5,699C 583.214,696.711 580.381,693.211 579,688.5C 570.148,698.781 558.981,702.281 545.5,699C 524.638,693.14 513.972,679.307 513.5,657.5C 514.351,634.345 525.684,619.345 547.5,612.5 Z M 555.5,634.5 C 572.917,635.093 580.417,644.093 578,661.5C 573.189,675.822 563.689,680.322 549.5,675C 541.938,668.99 539.105,661.156 541,651.5C 542.5,642.843 547.334,637.177 555.5,634.5 Z"/></g>
<g><path style="opacity:0.854" fill="#fefffe" d="M 309.5,613.5 C 317.494,611.339 321.661,614.339 322,622.5C 322.217,646.835 321.883,671.169 321,695.5C 319.607,698.366 317.274,699.699 314,699.5C 309.652,699.666 306.985,697.666 306,693.5C 305.333,668.833 305.333,644.167 306,619.5C 306.564,617.113 307.73,615.113 309.5,613.5 Z"/></g>
</svg>